<?xml version="1.0" standalone="no"?>
<!DOCTYPE svg PUBLIC "-//W3C//DTD SVG 20010904//EN"
 "http://www.w3.org/TR/2001/REC-SVG-20010904/DTD/svg10.dtd">
<svg version="1.0" xmlns="http://www.w3.org/2000/svg"
 width="866.000000pt" height="866.000000pt" viewBox="0 0 866.000000 866.000000"
 preserveAspectRatio="xMidYMid meet">
<metadata>
Created by potrace 1.11, written by Peter Selinger 2001-2013
</metadata>
<g transform="translate(0.000000,866.000000) scale(0.100000,-0.100000)"
fill="#000000" stroke="none">
<path d="M1125 8472 c-33 -70 -83 -179 -113 -241 -29 -63 -54 -120 -55 -125
-1 -6 -4 -13 -7 -16 -6 -6 -60 -117 -60 -123 0 -5 -61 -136 -194 -420 -25 -54
-46 -99 -46 -101 0 -2 -26 -59 -59 -127 -32 -68 -70 -151 -85 -184 -15 -33
-42 -91 -60 -130 -19 -38 -51 -108 -72 -155 -21 -47 -43 -88 -49 -92 -5 -4 -7
-8 -2 -8 4 0 0 -15 -10 -32 -9 -18 -18 -35 -18 -38 -1 -3 -13 -30 -27 -60 -24
-51 -40 -84 -123 -265 -18 -38 -44 -96 -59 -127 l-26 -57 2 -2113 3 -2113 125
0 124 -1 32 31 c17 16 87 82 154 145 67 63 148 140 180 170 32 30 106 100 165
155 59 55 137 128 174 163 l66 63 1 592 c1 326 2 595 3 598 0 3 285 5 632 5
l632 -1 64 60 c36 33 86 80 112 105 26 25 107 101 181 170 73 69 150 141 170
160 20 19 96 91 170 160 73 69 150 141 170 160 39 37 265 250 329 310 62 58
289 271 351 330 187 178 302 284 317 296 22 16 114 15 -1034 15 l-873 -1 -1
58 c0 31 0 156 0 277 0 121 -4 224 -9 230 -4 5 -47 96 -95 200 -48 105 -107
232 -131 283 -24 52 -44 95 -44 97 0 2 -29 63 -64 137 -35 73 -73 154 -85 181
-53 118 -66 146 -97 211 -19 38 -34 75 -34 83 0 7 -4 13 -10 13 -5 0 -10 5
-10 12 0 6 -11 34 -24 62 -13 28 -43 92 -66 141 -23 50 -50 106 -60 127 -10
20 -17 38 -14 41 2 2 -2 10 -11 17 -8 7 -15 18 -15 25 0 8 -11 36 -25 63 -14
28 -25 55 -25 61 0 6 -5 11 -10 11 -6 0 -9 3 -8 8 1 4 -9 30 -22 57 -13 28
-24 52 -25 55 -4 12 -60 133 -106 227 -27 57 -49 109 -49 118 0 8 -4 15 -10
15 -5 0 -10 6 -11 13 0 6 -15 42 -32 79 l-33 67 -59 -127z"/>
<path d="M5382 6313 c-44 -43 -138 -133 -209 -200 -70 -67 -155 -148 -189
-180 -33 -32 -135 -128 -225 -214 -146 -139 -232 -221 -440 -419 -31 -30 -129
-123 -216 -206 -87 -83 -193 -185 -237 -226 l-78 -74 -1 -1422 c0 -783 3
-1425 7 -1429 10 -10 237 -9 244 1 9 15 8 736 -1 736 -5 0 -5 5 -1 12 10 15
11 948 1 948 -4 0 -4 8 0 18 5 9 8 59 7 110 -1 87 0 92 20 93 12 1 26 0 31 -1
6 -1 15 -2 20 -1 39 4 133 3 142 -2 6 -4 13 -4 17 0 3 4 25 6 49 5 59 -3 74
-3 140 0 31 2 57 -1 57 -5 0 -5 5 -5 11 -1 16 10 149 11 149 1 0 -5 5 -5 12
-1 16 10 258 11 258 1 0 -5 5 -5 11 -2 14 9 129 12 129 3 0 -4 12 -3 28 0 15
4 41 6 57 5 37 -4 80 -3 123 0 18 2 35 0 38 -4 3 -5 11 -6 19 -3 23 9 125 10
125 1 0 -5 5 -5 11 -1 16 10 149 11 149 1 0 -4 8 -4 18 0 21 10 264 9 279 0 7
-4 14 -4 17 1 3 5 20 7 38 5 42 -3 82 -4 134 -1 22 1 45 -1 51 -5 5 -4 13 -3
17 0 4 4 28 6 54 4 56 -2 46 -2 155 0 48 1 90 -1 94 -5 12 -12 10 -1006 -2
-1008 -5 0 -14 -2 -20 -2 -5 -1 -16 -5 -22 -9 -7 -5 -13 -5 -13 0 0 4 -23 8
-50 8 -28 0 -50 -4 -50 -8 0 -5 -5 -5 -11 -1 -16 9 -229 11 -229 1 0 -5 -5 -5
-11 -1 -16 9 -229 11 -229 1 0 -5 -5 -5 -11 -1 -16 9 -149 11 -149 1 0 -5 -5
-5 -11 -1 -16 9 -229 11 -229 1 0 -5 -5 -5 -11 -1 -17 10 -229 10 -229 -1 0
-5 -4 -5 -10 1 -5 5 -27 8 -48 6 l-38 -4 1 -59 c1 -32 4 -62 8 -65 3 -4 50 -8
104 -9 109 -3 245 -13 283 -20 14 -3 36 -7 50 -10 14 -3 34 -7 45 -9 119 -24
252 -67 365 -120 58 -26 185 -99 188 -107 2 -5 9 -9 15 -9 15 0 107 -68 189
-140 102 -89 158 -154 238 -273 l55 -81 235 0 235 0 3 580 2 579 -195 0 c-124
0 -196 3 -198 10 -2 5 -3 230 -2 498 0 325 -3 491 -10 495 -14 9 -37 9 -57 -1
-11 -4 -18 -4 -18 2 0 7 -8 7 -24 1 -13 -5 -27 -6 -30 -3 -8 9 -85 9 -79 1 2
-5 -7 -4 -21 2 -17 6 -35 6 -52 0 -14 -6 -23 -6 -20 -1 4 5 -9 6 -28 1 -19 -4
-40 -4 -47 0 -7 5 -23 4 -36 -1 -13 -5 -22 -5 -19 -1 5 8 -69 7 -82 -2 -4 -2
-14 -1 -22 4 -7 4 -24 4 -37 -1 -13 -5 -22 -5 -19 -1 5 8 -69 7 -82 -2 -4 -2
-14 -1 -22 4 -7 4 -24 4 -37 -1 -13 -5 -22 -5 -19 -1 2 4 -14 6 -37 4 -50 -4
-52 -4 -95 1 -18 2 -36 -1 -38 -5 -3 -5 -12 -4 -20 3 -12 10 -14 90 -14 490
l0 479 483 2 482 3 1 45 c1 50 13 37 -342 375 -81 77 -168 160 -194 185 -26
25 -122 117 -215 205 -92 88 -213 203 -268 255 -55 52 -126 120 -157 150 -32
30 -69 65 -82 78 l-25 23 -81 -78z"/>
<path d="M6901 5398 c0 -264 -2 -483 -5 -486 -3 -3 -214 -5 -468 -5 -255 0
-465 -3 -468 -8 -4 -5 -5 -572 -1 -639 1 -14 54 -16 467 -15 256 0 468 -3 470
-6 2 -4 4 -223 4 -487 l1 -479 369 0 c256 0 370 4 373 11 2 6 3 224 3 483 l-1
473 25 1 c14 1 225 2 470 3 l445 1 3 331 2 331 -466 -1 c-256 -1 -469 1 -473
4 -3 3 -6 221 -6 485 l0 480 -373 2 -372 1 1 -480z"/>
<path d="M1260 3583 c-1 -138 -1 -1554 0 -1570 0 -7 10 -23 23 -36 144 -156
238 -256 265 -285 l34 -34 86 43 c109 54 183 83 241 95 13 3 31 9 40 13 9 5
34 12 56 16 22 3 60 10 85 14 41 6 112 6 225 -3 22 -1 67 -11 100 -21 33 -10
62 -19 65 -20 3 0 28 -13 55 -27 159 -83 238 -210 244 -392 4 -136 -37 -255
-113 -330 -62 -62 -180 -125 -261 -140 -59 -12 -225 -15 -231 -4 -3 4 -9 6
-13 3 -8 -5 -108 18 -146 33 -150 61 -375 197 -462 281 -29 28 -56 51 -60 51
-5 0 -19 -17 -33 -37 -14 -20 -29 -42 -35 -48 -5 -6 -14 -18 -20 -27 -5 -9
-79 -112 -162 -228 -84 -116 -153 -213 -153 -217 0 -15 178 -178 255 -233 156
-112 399 -223 535 -244 8 -2 29 -6 45 -9 134 -29 343 -39 500 -24 72 7 80 9
175 28 64 13 219 66 238 81 6 6 12 8 12 4 0 -13 192 99 198 116 2 4 8 6 13 2
5 -3 12 2 15 10 3 9 10 16 15 16 19 0 163 137 226 215 175 218 255 502 229
815 -7 78 -15 128 -31 183 -8 26 -11 47 -8 47 3 0 1 6 -4 13 -6 6 -16 30 -23
52 -16 51 -92 186 -138 245 -67 86 -166 175 -272 244 -129 85 -298 156 -432
181 -13 3 -34 7 -48 10 -107 20 -333 28 -429 13 -31 -5 -69 -10 -86 -13 -16
-2 -44 -9 -62 -14 l-31 -9 -4 55 c-1 30 -1 57 1 59 3 2 4 23 3 47 -4 112 -4
186 2 195 4 6 2 13 -4 17 -6 4 -8 11 -4 16 3 6 6 51 6 100 l-1 89 27 1 c15 0
315 0 667 0 352 0 647 2 655 5 13 3 15 48 15 331 l0 328 -1043 3 -1042 2 0
-107z"/>
<path d="M4207 3683 c-2 -5 -3 -384 -3 -844 l1 -836 100 -108 c55 -59 127
-137 161 -173 l61 -64 92 45 c50 25 94 46 96 46 3 1 21 7 41 16 109 45 265 78
374 78 314 0 525 -131 583 -363 14 -52 15 -190 2 -250 -9 -44 -63 -144 -97
-179 -36 -36 -134 -104 -158 -109 -8 -2 -28 -9 -45 -17 -90 -40 -237 -41 -415
0 -8 2 -15 4 -15 5 0 1 -7 3 -15 5 -23 4 -178 81 -235 115 -27 17 -57 33 -65
37 -8 4 -17 9 -20 12 -3 3 -24 19 -47 35 -23 15 -69 54 -102 85 l-60 58 -20
-23 c-11 -12 -24 -31 -30 -42 -6 -11 -17 -26 -24 -34 -7 -7 -22 -26 -33 -43
-10 -16 -22 -34 -27 -40 -4 -5 -35 -48 -69 -95 -34 -47 -65 -86 -70 -88 -4 -2
-8 -8 -8 -13 0 -6 -19 -36 -42 -67 -24 -31 -53 -71 -65 -89 l-21 -31 70 -69
c79 -77 75 -73 144 -131 29 -23 57 -42 62 -42 6 0 15 -6 19 -13 4 -8 15 -17
23 -20 8 -4 38 -21 65 -37 126 -76 305 -145 440 -170 28 -5 63 -12 79 -15 131
-26 442 -24 556 5 19 5 49 11 65 14 74 12 305 99 313 118 2 4 8 8 13 8 12 0
113 62 117 72 2 4 8 8 13 8 11 0 12 1 83 62 96 83 216 215 216 238 0 5 6 15
13 22 47 47 127 243 153 373 18 89 24 318 11 405 -13 89 -18 115 -24 130 -3 8
-8 26 -10 40 -2 14 -8 29 -14 35 -5 5 -9 16 -9 25 0 42 -109 227 -179 304 -99
108 -268 238 -339 260 -12 4 -22 12 -22 17 0 5 -7 9 -16 9 -9 0 -28 6 -42 14
-40 22 -137 55 -211 73 -72 17 -86 19 -180 32 -68 9 -301 6 -361 -4 -19 -3
-44 -8 -55 -9 -11 -2 -38 -7 -60 -11 l-40 -7 0 286 0 286 45 1 c25 0 332 0
683 1 l637 0 0 334 0 334 -1039 0 c-572 0 -1042 -3 -1044 -7z"/>
</g>
</svg>
